<?xml version="1.0" encoding="utf-8"?>
<svg viewBox="0 0 148.173 39.177" xmlns="http://www.w3.org/2000/svg">
  <g id="logo" transform="matrix(1, 0, 0, 1, -140, -34.417)">
    <text id="_26andfour" data-name="26andfour" transform="translate(140 67.595)" font-size="23" font-family="Montserrat-Bold, Montserrat" font-weight="700" style="white-space: pre;"><tspan x="0" y="0">26andfour</tspan></text>
    <rect id="Rectangle_1" data-name="Rectangle 1" width="6.158" height="20.152" rx="3.079" transform="translate(282.632 34.417) rotate(45)" fill="#00c2ff"/>
    <rect id="Rectangle_2" data-name="Rectangle 2" width="6.158" height="20.152" rx="3.079" transform="translate(283.819 44.997) rotate(45)" fill="#00cc80"/>
  </g>
  <rect x="1.561" y="15.442" width="0.082" height="0.082" style="fill: rgb(216, 216, 216);"/>
  <rect y="16.181" width="103.655" height="22.998" style="fill: rgb(255, 255, 255);"/>
  <rect x="2.197" y="6.715" width="124.833" height="31.274" style="fill: rgb(255, 255, 255);"/>
  <path d="M 25.794 10.083 L 27.504 10.083 L 27.504 29.683 L 25.514 29.683 L 25.514 14.003 L 17.814 27.193 L 16.834 27.193 L 9.134 14.083 L 9.134 29.683 L 7.144 29.683 L 7.144 10.083 L 8.854 10.083 L 17.364 24.613 L 25.794 10.083 ZM 42.679 14.953 L 44.639 14.953 L 37.269 31.443 C 36.676 32.83 35.986 33.81 35.199 34.383 C 34.419 34.963 33.476 35.253 32.369 35.253 C 31.662 35.253 31.002 35.143 30.389 34.923 C 29.769 34.696 29.236 34.36 28.789 33.913 L 29.709 32.423 C 30.456 33.17 31.352 33.543 32.399 33.543 C 33.072 33.543 33.646 33.356 34.119 32.983 C 34.599 32.61 35.042 31.976 35.449 31.083 L 36.099 29.653 L 29.519 14.953 L 31.589 14.953 L 37.129 27.473 L 42.679 14.953 ZM 46.652 29.683 L 46.652 10.083 L 48.722 10.083 L 48.722 27.893 L 59.702 27.893 L 59.702 29.683 L 46.652 29.683 ZM 67.317 29.823 C 65.897 29.823 64.62 29.5 63.487 28.853 C 62.347 28.213 61.45 27.323 60.797 26.183 C 60.144 25.043 59.817 23.756 59.817 22.323 C 59.817 20.883 60.144 19.593 60.797 18.453 C 61.45 17.313 62.347 16.426 63.487 15.793 C 64.62 15.16 65.897 14.843 67.317 14.843 C 68.737 14.843 70.017 15.16 71.157 15.793 C 72.297 16.426 73.187 17.313 73.827 18.453 C 74.474 19.593 74.797 20.883 74.797 22.323 C 74.797 23.756 74.474 25.043 73.827 26.183 C 73.187 27.323 72.297 28.213 71.157 28.853 C 70.017 29.5 68.737 29.823 67.317 29.823 Z M 67.317 28.063 C 68.364 28.063 69.304 27.823 70.137 27.343 C 70.964 26.87 71.61 26.193 72.077 25.313 C 72.544 24.44 72.777 23.443 72.777 22.323 C 72.777 21.203 72.544 20.203 72.077 19.323 C 71.61 18.443 70.964 17.766 70.137 17.293 C 69.304 16.82 68.364 16.583 67.317 16.583 C 66.27 16.583 65.334 16.82 64.507 17.293 C 63.674 17.766 63.02 18.443 62.547 19.323 C 62.067 20.203 61.827 21.203 61.827 22.323 C 61.827 23.443 62.067 24.44 62.547 25.313 C 63.02 26.193 63.674 26.87 64.507 27.343 C 65.334 27.823 66.27 28.063 67.317 28.063 ZM 89.38 14.953 L 91.29 14.953 L 91.29 27.893 C 91.29 30.393 90.676 32.246 89.45 33.453 C 88.23 34.653 86.386 35.253 83.92 35.253 C 82.56 35.253 81.27 35.053 80.05 34.653 C 78.823 34.253 77.826 33.696 77.06 32.983 L 78.07 31.473 C 78.783 32.106 79.646 32.603 80.66 32.963 C 81.68 33.316 82.75 33.493 83.87 33.493 C 85.736 33.493 87.106 33.06 87.98 32.193 C 88.86 31.32 89.3 29.97 89.3 28.143 L 89.3 26.263 C 88.686 27.196 87.88 27.906 86.88 28.393 C 85.88 28.88 84.773 29.123 83.56 29.123 C 82.18 29.123 80.923 28.82 79.79 28.213 C 78.663 27.606 77.776 26.756 77.13 25.663 C 76.49 24.57 76.17 23.333 76.17 21.953 C 76.17 20.573 76.49 19.343 77.13 18.263 C 77.776 17.176 78.66 16.336 79.78 15.743 C 80.9 15.143 82.16 14.843 83.56 14.843 C 84.813 14.843 85.943 15.096 86.95 15.603 C 87.956 16.103 88.766 16.83 89.38 17.783 L 89.38 14.953 Z M 83.76 27.363 C 84.82 27.363 85.78 27.133 86.64 26.673 C 87.5 26.213 88.166 25.573 88.64 24.753 C 89.12 23.933 89.36 23 89.36 21.953 C 89.36 20.906 89.12 19.98 88.64 19.173 C 88.166 18.36 87.503 17.723 86.65 17.263 C 85.803 16.81 84.84 16.583 83.76 16.583 C 82.693 16.583 81.736 16.806 80.89 17.253 C 80.036 17.7 79.373 18.333 78.9 19.153 C 78.42 19.973 78.18 20.906 78.18 21.953 C 78.18 23 78.42 23.933 78.9 24.753 C 79.373 25.573 80.036 26.213 80.89 26.673 C 81.736 27.133 82.693 27.363 83.76 27.363 ZM 101.674 29.823 C 100.254 29.823 98.977 29.5 97.844 28.853 C 96.704 28.213 95.807 27.323 95.154 26.183 C 94.501 25.043 94.174 23.756 94.174 22.323 C 94.174 20.883 94.501 19.593 95.154 18.453 C 95.807 17.313 96.704 16.426 97.844 15.793 C 98.977 15.16 100.254 14.843 101.674 14.843 C 103.094 14.843 104.374 15.16 105.514 15.793 C 106.654 16.426 107.544 17.313 108.184 18.453 C 108.831 19.593 109.154 20.883 109.154 22.323 C 109.154 23.756 108.831 25.043 108.184 26.183 C 107.544 27.323 106.654 28.213 105.514 28.853 C 104.374 29.5 103.094 29.823 101.674 29.823 Z M 101.674 28.063 C 102.721 28.063 103.661 27.823 104.494 27.343 C 105.321 26.87 105.967 26.193 106.434 25.313 C 106.901 24.44 107.134 23.443 107.134 22.323 C 107.134 21.203 106.901 20.203 106.434 19.323 C 105.967 18.443 105.321 17.766 104.494 17.293 C 103.661 16.82 102.721 16.583 101.674 16.583 C 100.627 16.583 99.691 16.82 98.864 17.293 C 98.031 17.766 97.377 18.443 96.904 19.323 C 96.424 20.203 96.184 21.203 96.184 22.323 C 96.184 23.443 96.424 24.44 96.904 25.313 C 97.377 26.193 98.031 26.87 98.864 27.343 C 99.691 27.823 100.627 28.063 101.674 28.063 ZM 118.027 29.823 C 116.607 29.823 115.33 29.5 114.197 28.853 C 113.057 28.213 112.16 27.323 111.507 26.183 C 110.853 25.043 110.527 23.756 110.527 22.323 C 110.527 20.883 110.853 19.593 111.507 18.453 C 112.16 17.313 113.057 16.426 114.197 15.793 C 115.33 15.16 116.607 14.843 118.027 14.843 C 119.447 14.843 120.727 15.16 121.867 15.793 C 123.007 16.426 123.897 17.313 124.537 18.453 C 125.183 19.593 125.507 20.883 125.507 22.323 C 125.507 23.756 125.183 25.043 124.537 26.183 C 123.897 27.323 123.007 28.213 121.867 28.853 C 120.727 29.5 119.447 29.823 118.027 29.823 Z M 118.027 28.063 C 119.073 28.063 120.013 27.823 120.847 27.343 C 121.673 26.87 122.32 26.193 122.787 25.313 C 123.253 24.44 123.487 23.443 123.487 22.323 C 123.487 21.203 123.253 20.203 122.787 19.323 C 122.32 18.443 121.673 17.766 120.847 17.293 C 120.013 16.82 119.073 16.583 118.027 16.583 C 116.98 16.583 116.043 16.82 115.217 17.293 C 114.383 17.766 113.73 18.443 113.257 19.323 C 112.777 20.203 112.537 21.203 112.537 22.323 C 112.537 23.443 112.777 24.44 113.257 25.313 C 113.73 26.193 114.383 26.87 115.217 27.343 C 116.043 27.823 116.98 28.063 118.027 28.063 ZM 134.379 29.823 C 132.959 29.823 131.683 29.5 130.549 28.853 C 129.409 28.213 128.513 27.323 127.859 26.183 C 127.206 25.043 126.879 23.756 126.879 22.323 C 126.879 20.883 127.206 19.593 127.859 18.453 C 128.513 17.313 129.409 16.426 130.549 15.793 C 131.683 15.16 132.959 14.843 134.379 14.843 C 135.799 14.843 137.079 15.16 138.219 15.793 C 139.359 16.426 140.249 17.313 140.889 18.453 C 141.536 19.593 141.859 20.883 141.859 22.323 C 141.859 23.756 141.536 25.043 140.889 26.183 C 140.249 27.323 139.359 28.213 138.219 28.853 C 137.079 29.5 135.799 29.823 134.379 29.823 Z M 134.379 28.063 C 135.426 28.063 136.366 27.823 137.199 27.343 C 138.026 26.87 138.673 26.193 139.139 25.313 C 139.606 24.44 139.839 23.443 139.839 22.323 C 139.839 21.203 139.606 20.203 139.139 19.323 C 138.673 18.443 138.026 17.766 137.199 17.293 C 136.366 16.82 135.426 16.583 134.379 16.583 C 133.333 16.583 132.396 16.82 131.569 17.293 C 130.736 17.766 130.083 18.443 129.609 19.323 C 129.129 20.203 128.889 21.203 128.889 22.323 C 128.889 23.443 129.129 24.44 129.609 25.313 C 130.083 26.193 130.736 26.87 131.569 27.343 C 132.396 27.823 133.333 28.063 134.379 28.063 Z" transform="matrix(0.8946079611778259, 0, 0, 0.9271150827407837, -2.1830549240112305, 5.15321683883667)" style="fill: rgb(51, 51, 51); white-space: pre;"/>
</svg>